<svg xmlns="http://www.w3.org/2000/svg" viewBox="0 0 800 600" width="800" height="600">
<defs>
<linearGradient id="bg77" x1="0" y1="0" x2="0" y2="1"><stop offset="0" stop-color="#f1e3d4"/><stop offset="1" stop-color="#ead4bd"/></linearGradient>
<linearGradient id="tb78" x1="0" y1="0" x2="0" y2="1"><stop offset="0" stop-color="#e7d3bd"/><stop offset="1" stop-color="#cbbaa6"/></linearGradient>
<radialGradient id="vg80" cx="0.5" cy="0.38" r="0.75"><stop offset="0.55" stop-color="#000" stop-opacity="0"/><stop offset="1" stop-color="#3b2418" stop-opacity="0.18"/></radialGradient>
<filter id="sh79" x="-20%" y="-50%" width="140%" height="200%"><feGaussianBlur stdDeviation="14"/></filter>
</defs>
<rect width="800" height="600" fill="url(#bg77)"/>
<circle cx="610" cy="120" r="210" fill="#fff" opacity="0.22"/>
<circle cx="140" cy="90" r="120" fill="#fff" opacity="0.12"/>
<rect y="455" width="800" height="145" fill="url(#tb78)"/>
<rect y="455" width="800" height="2" fill="#fff" opacity="0.35"/>
<g transform="translate(400 410) scale(1.17) translate(-400 -410)">
<ellipse cx="400" cy="545" rx="270" ry="26" fill="#3b2418" opacity="0.22" filter="url(#sh79)"/>
<defs>
<linearGradient id="sd73" x1="0" x2="1"><stop offset="0" stop-color="#41251a"/><stop offset="0.22" stop-color="#563122"/><stop offset="0.42" stop-color="#6e4c3e"/><stop offset="0.7" stop-color="#5a3424"/><stop offset="1" stop-color="#3d2318"/></linearGradient>
<radialGradient id="tp74" cx="0.4" cy="0.35" r="0.75"><stop offset="0" stop-color="#63483b"/><stop offset="1" stop-color="#462719"/></radialGradient>
<linearGradient id="dr75" x1="0" x2="1"><stop offset="0" stop-color="#95632d"/><stop offset="0.4" stop-color="#ce9353"/><stop offset="1" stop-color="#8b5c2a"/></linearGradient>
</defs><defs><linearGradient id="st76" x1="0" x2="1"><stop offset="0" stop-color="#e9e1d6"/><stop offset="0.45" stop-color="#ffffff"/><stop offset="1" stop-color="#d9cfc2"/></linearGradient></defs>
<path d="M366 428 L378 506 L422 506 L434 428Z" fill="url(#st76)"/>
<ellipse cx="400" cy="510" rx="122.82000000000001" ry="18" fill="#d8cdbf"/>
<ellipse cx="400" cy="506" rx="122.82000000000001" ry="16" fill="url(#st76)"/>
<ellipse cx="400" cy="424" rx="267" ry="64.1" fill="#d6cbbd"/>
<ellipse cx="400" cy="414" rx="267" ry="64.1" fill="url(#st76)"/><path d="M195 222 L195 400 A205 54 0 0 0 605 400 L605 222Z" fill="url(#sd73)"/><circle cx="193" cy="396" r="9" fill="#4a2a1b"/><circle cx="190" cy="393" r="2.6" fill="#fff" opacity="0.45"/><circle cx="194.5" cy="402.5" r="9" fill="#4a2a1b"/><circle cx="191.5" cy="399.5" r="2.6" fill="#fff" opacity="0.45"/><circle cx="199" cy="408.9" r="9" fill="#4a2a1b"/><circle cx="196" cy="405.9" r="2.6" fill="#fff" opacity="0.45"/><circle cx="206.5" cy="415.1" r="9" fill="#4a2a1b"/><circle cx="203.5" cy="412.1" r="2.6" fill="#fff" opacity="0.45"/><circle cx="216.7" cy="421.1" r="9" fill="#4a2a1b"/><circle cx="213.7" cy="418.1" r="2.6" fill="#fff" opacity="0.45"/><circle cx="229.6" cy="426.7" r="9" fill="#4a2a1b"/><circle cx="226.6" cy="423.7" r="2.6" fill="#fff" opacity="0.45"/><circle cx="245.1" cy="431.8" r="9" fill="#4a2a1b"/><circle cx="242.1" cy="428.8" r="2.6" fill="#fff" opacity="0.45"/><circle cx="262.7" cy="436.4" r="9" fill="#4a2a1b"/><circle cx="259.7" cy="433.4" r="2.6" fill="#fff" opacity="0.45"/><circle cx="282.4" cy="440.4" r="9" fill="#4a2a1b"/><circle cx="279.4" cy="437.4" r="2.6" fill="#fff" opacity="0.45"/><circle cx="303.8" cy="443.8" r="9" fill="#4a2a1b"/><circle cx="300.8" cy="440.8" r="2.6" fill="#fff" opacity="0.45"/><circle cx="326.6" cy="446.5" r="9" fill="#4a2a1b"/><circle cx="323.6" cy="443.5" r="2.6" fill="#fff" opacity="0.45"/><circle cx="350.5" cy="448.4" r="9" fill="#4a2a1b"/><circle cx="347.5" cy="445.4" r="2.6" fill="#fff" opacity="0.45"/><circle cx="375" cy="449.6" r="9" fill="#4a2a1b"/><circle cx="372" cy="446.6" r="2.6" fill="#fff" opacity="0.45"/><circle cx="400" cy="450" r="9" fill="#4a2a1b"/><circle cx="397" cy="447" r="2.6" fill="#fff" opacity="0.45"/><circle cx="425" cy="449.6" r="9" fill="#4a2a1b"/><circle cx="422" cy="446.6" r="2.6" fill="#fff" opacity="0.45"/><circle cx="449.5" cy="448.4" r="9" fill="#4a2a1b"/><circle cx="446.5" cy="445.4" r="2.6" fill="#fff" opacity="0.45"/><circle cx="473.4" cy="446.5" r="9" fill="#4a2a1b"/><circle cx="470.4" cy="443.5" r="2.6" fill="#fff" opacity="0.45"/><circle cx="496.2" cy="443.8" r="9" fill="#4a2a1b"/><circle cx="493.2" cy="440.8" r="2.6" fill="#fff" opacity="0.45"/><circle cx="517.6" cy="440.4" r="9" fill="#4a2a1b"/><circle cx="514.6" cy="437.4" r="2.6" fill="#fff" opacity="0.45"/><circle cx="537.3" cy="436.4" r="9" fill="#4a2a1b"/><circle cx="534.3" cy="433.4" r="2.6" fill="#fff" opacity="0.45"/><circle cx="554.9" cy="431.8" r="9" fill="#4a2a1b"/><circle cx="551.9" cy="428.8" r="2.6" fill="#fff" opacity="0.45"/><circle cx="570.4" cy="426.7" r="9" fill="#4a2a1b"/><circle cx="567.4" cy="423.7" r="2.6" fill="#fff" opacity="0.45"/><circle cx="583.3" cy="421.1" r="9" fill="#4a2a1b"/><circle cx="580.3" cy="418.1" r="2.6" fill="#fff" opacity="0.45"/><circle cx="593.5" cy="415.1" r="9" fill="#4a2a1b"/><circle cx="590.5" cy="412.1" r="2.6" fill="#fff" opacity="0.45"/><circle cx="601" cy="408.9" r="9" fill="#4a2a1b"/><circle cx="598" cy="405.9" r="2.6" fill="#fff" opacity="0.45"/><circle cx="605.5" cy="402.5" r="9" fill="#4a2a1b"/><circle cx="602.5" cy="399.5" r="2.6" fill="#fff" opacity="0.45"/><circle cx="607" cy="396" r="9" fill="#4a2a1b"/><circle cx="604" cy="393" r="2.6" fill="#fff" opacity="0.45"/><ellipse cx="400" cy="222" rx="205" ry="54" fill="url(#dr75)"/><ellipse cx="400" cy="222" rx="201" ry="51" fill="#c7843c"/><path d="M195 222 L195 226 L195.3 229.3 L196.1 232.7 L197.5 236 L199.5 239.3 L202 242.6 L205 245.8 L208.6 248.9 L212.7 252 L217.3 255.1 L222.5 258 L228.1 260.9 L234.2 263.6 L240.7 266.3 L247.7 268.8 L255 271.3 L262.8 273.6 L271 275.7 L279.5 277.8 L288.3 279.7 L297.5 281.4 L306.9 283 L316.6 284.5 L326.5 285.7 L336.7 286.9 L346.9 287.8 L357.4 288.6 L367.9 289.2 L378.6 289.6 L389.3 289.9 L400 290 L410.7 289.9 L421.4 289.6 L432.1 289.2 L442.6 288.6 L453.1 287.8 L463.3 286.9 L473.5 285.7 L483.4 284.5 L493.1 283 L502.5 281.4 L511.7 279.7 L520.5 277.8 L529 275.7 L537.2 273.6 L545 271.3 L552.3 268.8 L559.3 266.3 L565.8 263.6 L571.9 260.9 L577.5 258 L582.7 255.1 L587.3 252 L591.4 248.9 L595 245.8 L598 242.6 L600.5 239.3 L602.5 236 L603.9 232.7 L604.7 229.3 L605 226 L605 222 A205 54 0 0 1 195 222Z" fill="url(#dr75)"/><rect x="195.2" y="237.2" width="8.5" height="37.2" rx="4.3" fill="url(#dr75)"/><rect x="197.9" y="245.2" width="1.5" height="17.7" rx="1" fill="#fff" opacity="0.28"/><rect x="203.5" y="245" width="9.2" height="39.3" rx="4.6" fill="url(#dr75)"/><rect x="206.4" y="253" width="1.5" height="19.1" rx="1" fill="#fff" opacity="0.28"/><rect x="220.5" y="254.3" width="9.9" height="58.5" rx="5" fill="url(#dr75)"/><rect x="223.7" y="262.3" width="1.6" height="31.5" rx="1" fill="#fff" opacity="0.28"/><rect x="247.9" y="263.7" width="10.8" height="59.5" rx="5.4" fill="url(#dr75)"/><rect x="251.3" y="271.7" width="1.7" height="32.2" rx="1" fill="#fff" opacity="0.28"/><rect x="283.3" y="271.2" width="8.6" height="43.8" rx="4.3" fill="url(#dr75)"/><rect x="286.1" y="279.2" width="1.5" height="21.9" rx="1" fill="#fff" opacity="0.28"/><rect x="322.7" y="276.5" width="10" height="64.2" rx="5" fill="url(#dr75)"/><rect x="325.9" y="284.5" width="1.6" height="35.2" rx="1" fill="#fff" opacity="0.28"/><rect x="358.1" y="279.1" width="10.1" height="52.7" rx="5.1" fill="url(#dr75)"/><rect x="361.4" y="287.1" width="1.6" height="27.8" rx="1" fill="#fff" opacity="0.28"/><rect x="388.3" y="280" width="10.5" height="47.7" rx="5.3" fill="url(#dr75)"/><rect x="391.7" y="288" width="1.7" height="24.5" rx="1" fill="#fff" opacity="0.28"/><rect x="413.9" y="279.7" width="13.3" height="39.8" rx="6.6" fill="url(#dr75)"/><rect x="418.1" y="287.7" width="2.1" height="19.4" rx="1" fill="#fff" opacity="0.28"/><rect x="470.1" y="276.3" width="9.3" height="59.2" rx="4.7" fill="url(#dr75)"/><rect x="473.1" y="284.3" width="1.5" height="31.9" rx="1" fill="#fff" opacity="0.28"/><rect x="498.3" y="272.8" width="8.6" height="81" rx="4.3" fill="url(#dr75)"/><rect x="501" y="280.8" width="1.5" height="46.2" rx="1" fill="#fff" opacity="0.28"/><rect x="526.6" y="267.1" width="13.1" height="50.8" rx="6.6" fill="url(#dr75)"/><rect x="530.8" y="275.1" width="2.1" height="26.5" rx="1" fill="#fff" opacity="0.28"/><rect x="555.7" y="259.6" width="9.4" height="72.6" rx="4.7" fill="url(#dr75)"/><rect x="558.7" y="267.6" width="1.5" height="40.7" rx="1" fill="#fff" opacity="0.28"/><rect x="574.6" y="252" width="10.1" height="61.3" rx="5" fill="url(#dr75)"/><rect x="577.8" y="260" width="1.6" height="33.4" rx="1" fill="#fff" opacity="0.28"/><rect x="595.3" y="239.9" width="5.5" height="37.8" rx="2.8" fill="url(#dr75)"/><rect x="597.1" y="247.9" width="1.5" height="18.1" rx="1" fill="#fff" opacity="0.28"/><ellipse cx="338.5" cy="203.1" rx="65.6" ry="8.64" fill="#fff" opacity="0.16"/><g transform="translate(349.3 174.9)">
<ellipse cx="0" cy="5.6" rx="16.8" ry="8.8" fill="#aa7e45" opacity="0.35"/>
<path d="M-16 0 C-16 -14.4 16 -14.4 16 0 C16 8.8 -16 8.8 -16 0Z" fill="#e3a85c"/>
<path d="M-11.2 -0.8 C-9.6 -11.2 9.6 -11.2 8.8 -0.8 M-7.2 -4.8 C-4 -15.2 5.6 -15.2 4.8 -5.6" fill="none" stroke="#ba8a4b" stroke-width="1.9" stroke-linecap="round" opacity="0.55"/>
<path d="M-2.4 -12 Q0 -18.4 1.6 -11.2" fill="#e3a85c" stroke="#ba8a4b" stroke-width="1.3" opacity="0.9"/>
<ellipse cx="-5.6" cy="-7.2" rx="3.2" ry="1.6" fill="#fff" opacity="0.55"/>
</g><g transform="translate(450.7 174.9)">
<ellipse cx="0" cy="5.6" rx="16.8" ry="8.8" fill="#502f1f" opacity="0.35"/>
<path d="M-16 0 C-16 -14.4 16 -14.4 16 0 C16 8.8 -16 8.8 -16 0Z" fill="#6b3f29"/>
<path d="M-11.2 -0.8 C-9.6 -11.2 9.6 -11.2 8.8 -0.8 M-7.2 -4.8 C-4 -15.2 5.6 -15.2 4.8 -5.6" fill="none" stroke="#583422" stroke-width="1.9" stroke-linecap="round" opacity="0.55"/>
<path d="M-2.4 -12 Q0 -18.4 1.6 -11.2" fill="#6b3f29" stroke="#583422" stroke-width="1.3" opacity="0.9"/>
<ellipse cx="-5.6" cy="-7.2" rx="3.2" ry="1.6" fill="#fff" opacity="0.55"/>
</g><g transform="translate(532.7 190.6)">
<ellipse cx="0" cy="5.6" rx="16.8" ry="8.8" fill="#aa7e45" opacity="0.35"/>
<path d="M-16 0 C-16 -14.4 16 -14.4 16 0 C16 8.8 -16 8.8 -16 0Z" fill="#e3a85c"/>
<path d="M-11.2 -0.8 C-9.6 -11.2 9.6 -11.2 8.8 -0.8 M-7.2 -4.8 C-4 -15.2 5.6 -15.2 4.8 -5.6" fill="none" stroke="#ba8a4b" stroke-width="1.9" stroke-linecap="round" opacity="0.55"/>
<path d="M-2.4 -12 Q0 -18.4 1.6 -11.2" fill="#e3a85c" stroke="#ba8a4b" stroke-width="1.3" opacity="0.9"/>
<ellipse cx="-5.6" cy="-7.2" rx="3.2" ry="1.6" fill="#fff" opacity="0.55"/>
</g><g transform="translate(267.3 190.6)">
<ellipse cx="0" cy="5.6" rx="16.8" ry="8.8" fill="#502f1f" opacity="0.35"/>
<path d="M-16 0 C-16 -14.4 16 -14.4 16 0 C16 8.8 -16 8.8 -16 0Z" fill="#6b3f29"/>
<path d="M-11.2 -0.8 C-9.6 -11.2 9.6 -11.2 8.8 -0.8 M-7.2 -4.8 C-4 -15.2 5.6 -15.2 4.8 -5.6" fill="none" stroke="#583422" stroke-width="1.9" stroke-linecap="round" opacity="0.55"/>
<path d="M-2.4 -12 Q0 -18.4 1.6 -11.2" fill="#6b3f29" stroke="#583422" stroke-width="1.3" opacity="0.9"/>
<ellipse cx="-5.6" cy="-7.2" rx="3.2" ry="1.6" fill="#fff" opacity="0.55"/>
</g><g transform="translate(564 216)">
<ellipse cx="0" cy="5.6" rx="16.8" ry="8.8" fill="#aa7e45" opacity="0.35"/>
<path d="M-16 0 C-16 -14.4 16 -14.4 16 0 C16 8.8 -16 8.8 -16 0Z" fill="#e3a85c"/>
<path d="M-11.2 -0.8 C-9.6 -11.2 9.6 -11.2 8.8 -0.8 M-7.2 -4.8 C-4 -15.2 5.6 -15.2 4.8 -5.6" fill="none" stroke="#ba8a4b" stroke-width="1.9" stroke-linecap="round" opacity="0.55"/>
<path d="M-2.4 -12 Q0 -18.4 1.6 -11.2" fill="#e3a85c" stroke="#ba8a4b" stroke-width="1.3" opacity="0.9"/>
<ellipse cx="-5.6" cy="-7.2" rx="3.2" ry="1.6" fill="#fff" opacity="0.55"/>
</g><g transform="translate(236 216)">
<ellipse cx="0" cy="5.6" rx="16.8" ry="8.8" fill="#502f1f" opacity="0.35"/>
<path d="M-16 0 C-16 -14.4 16 -14.4 16 0 C16 8.8 -16 8.8 -16 0Z" fill="#6b3f29"/>
<path d="M-11.2 -0.8 C-9.6 -11.2 9.6 -11.2 8.8 -0.8 M-7.2 -4.8 C-4 -15.2 5.6 -15.2 4.8 -5.6" fill="none" stroke="#583422" stroke-width="1.9" stroke-linecap="round" opacity="0.55"/>
<path d="M-2.4 -12 Q0 -18.4 1.6 -11.2" fill="#6b3f29" stroke="#583422" stroke-width="1.3" opacity="0.9"/>
<ellipse cx="-5.6" cy="-7.2" rx="3.2" ry="1.6" fill="#fff" opacity="0.55"/>
</g><g transform="translate(532.7 241.4)">
<ellipse cx="0" cy="5.6" rx="16.8" ry="8.8" fill="#aa7e45" opacity="0.35"/>
<path d="M-16 0 C-16 -14.4 16 -14.4 16 0 C16 8.8 -16 8.8 -16 0Z" fill="#e3a85c"/>
<path d="M-11.2 -0.8 C-9.6 -11.2 9.6 -11.2 8.8 -0.8 M-7.2 -4.8 C-4 -15.2 5.6 -15.2 4.8 -5.6" fill="none" stroke="#ba8a4b" stroke-width="1.9" stroke-linecap="round" opacity="0.55"/>
<path d="M-2.4 -12 Q0 -18.4 1.6 -11.2" fill="#e3a85c" stroke="#ba8a4b" stroke-width="1.3" opacity="0.9"/>
<ellipse cx="-5.6" cy="-7.2" rx="3.2" ry="1.6" fill="#fff" opacity="0.55"/>
</g><g transform="translate(267.3 241.4)">
<ellipse cx="0" cy="5.6" rx="16.8" ry="8.8" fill="#502f1f" opacity="0.35"/>
<path d="M-16 0 C-16 -14.4 16 -14.4 16 0 C16 8.8 -16 8.8 -16 0Z" fill="#6b3f29"/>
<path d="M-11.2 -0.8 C-9.6 -11.2 9.6 -11.2 8.8 -0.8 M-7.2 -4.8 C-4 -15.2 5.6 -15.2 4.8 -5.6" fill="none" stroke="#583422" stroke-width="1.9" stroke-linecap="round" opacity="0.55"/>
<path d="M-2.4 -12 Q0 -18.4 1.6 -11.2" fill="#6b3f29" stroke="#583422" stroke-width="1.3" opacity="0.9"/>
<ellipse cx="-5.6" cy="-7.2" rx="3.2" ry="1.6" fill="#fff" opacity="0.55"/>
</g><g transform="translate(450.7 257.1)">
<ellipse cx="0" cy="5.6" rx="16.8" ry="8.8" fill="#aa7e45" opacity="0.35"/>
<path d="M-16 0 C-16 -14.4 16 -14.4 16 0 C16 8.8 -16 8.8 -16 0Z" fill="#e3a85c"/>
<path d="M-11.2 -0.8 C-9.6 -11.2 9.6 -11.2 8.8 -0.8 M-7.2 -4.8 C-4 -15.2 5.6 -15.2 4.8 -5.6" fill="none" stroke="#ba8a4b" stroke-width="1.9" stroke-linecap="round" opacity="0.55"/>
<path d="M-2.4 -12 Q0 -18.4 1.6 -11.2" fill="#e3a85c" stroke="#ba8a4b" stroke-width="1.3" opacity="0.9"/>
<ellipse cx="-5.6" cy="-7.2" rx="3.2" ry="1.6" fill="#fff" opacity="0.55"/>
</g><g transform="translate(349.3 257.1)">
<ellipse cx="0" cy="5.6" rx="16.8" ry="8.8" fill="#502f1f" opacity="0.35"/>
<path d="M-16 0 C-16 -14.4 16 -14.4 16 0 C16 8.8 -16 8.8 -16 0Z" fill="#6b3f29"/>
<path d="M-11.2 -0.8 C-9.6 -11.2 9.6 -11.2 8.8 -0.8 M-7.2 -4.8 C-4 -15.2 5.6 -15.2 4.8 -5.6" fill="none" stroke="#583422" stroke-width="1.9" stroke-linecap="round" opacity="0.55"/>
<path d="M-2.4 -12 Q0 -18.4 1.6 -11.2" fill="#6b3f29" stroke="#583422" stroke-width="1.3" opacity="0.9"/>
<ellipse cx="-5.6" cy="-7.2" rx="3.2" ry="1.6" fill="#fff" opacity="0.55"/>
</g><g transform="translate(426.3 201.5) rotate(16.849266616627574) scale(0.9)"><path d="M-6 14 L-2 -26 L12 -18 L8 16Z" fill="#2e190f"/><path d="M-2 -26 L12 -18 L8 16 L4 14Z" fill="#54423a"/><path d="M-3 -18 L-1 6" stroke="#fff" stroke-width="1.6" opacity="0.25"/></g><g transform="translate(382.5 205.4) rotate(-1.8649070151150227) scale(0.9)"><path d="M-6 14 L-2 -26 L12 -18 L8 16Z" fill="#2e190f"/><path d="M-2 -26 L12 -18 L8 16 L4 14Z" fill="#54423a"/><path d="M-3 -18 L-1 6" stroke="#fff" stroke-width="1.6" opacity="0.25"/></g><g transform="translate(433.6 212) rotate(3.9187942538410425) scale(0.9)"><path d="M-6 14 L-2 -26 L12 -18 L8 16Z" fill="#2e190f"/><path d="M-2 -26 L12 -18 L8 16 L4 14Z" fill="#54423a"/><path d="M-3 -18 L-1 6" stroke="#fff" stroke-width="1.6" opacity="0.25"/></g><g transform="translate(444.1 212.7) rotate(-15.611861431971192) scale(0.9)"><path d="M-6 14 L-2 -26 L12 -18 L8 16Z" fill="#2e190f"/><path d="M-2 -26 L12 -18 L8 16 L4 14Z" fill="#54423a"/><path d="M-3 -18 L-1 6" stroke="#fff" stroke-width="1.6" opacity="0.25"/></g><g transform="translate(419.2 217.4) rotate(11.824440089985728) scale(0.9)"><path d="M-6 14 L-2 -26 L12 -18 L8 16Z" fill="#2e190f"/><path d="M-2 -26 L12 -18 L8 16 L4 14Z" fill="#54423a"/><path d="M-3 -18 L-1 6" stroke="#fff" stroke-width="1.6" opacity="0.25"/></g>
</g>
<rect width="800" height="600" fill="url(#vg80)"/>
</svg>