<svg xmlns="http://www.w3.org/2000/svg" viewBox="0 0 800 600" width="800" height="600">
<defs>
<linearGradient id="bg97" x1="0" y1="0" x2="0" y2="1"><stop offset="0" stop-color="#f5eada"/><stop offset="1" stop-color="#efdfc6"/></linearGradient>
<linearGradient id="tb98" x1="0" y1="0" x2="0" y2="1"><stop offset="0" stop-color="#e7d3bd"/><stop offset="1" stop-color="#cbbaa6"/></linearGradient>
<radialGradient id="vg100" cx="0.5" cy="0.38" r="0.75"><stop offset="0.55" stop-color="#000" stop-opacity="0"/><stop offset="1" stop-color="#3b2418" stop-opacity="0.18"/></radialGradient>
<filter id="sh99" x="-20%" y="-50%" width="140%" height="200%"><feGaussianBlur stdDeviation="14"/></filter>
</defs>
<rect width="800" height="600" fill="url(#bg97)"/>
<circle cx="610" cy="120" r="210" fill="#fff" opacity="0.22"/>
<circle cx="140" cy="90" r="120" fill="#fff" opacity="0.12"/>
<rect y="455" width="800" height="145" fill="url(#tb98)"/>
<rect y="455" width="800" height="2" fill="#fff" opacity="0.35"/>
<g transform="translate(400 410) scale(1.17) translate(-400 -410)">
<ellipse cx="400" cy="545" rx="270" ry="26" fill="#3b2418" opacity="0.22" filter="url(#sh99)"/>
<defs><radialGradient id="pl95" cx="0.5" cy="0.4" r="0.6"><stop offset="0" stop-color="#ffffff"/><stop offset="1" stop-color="#e8e0d4"/></radialGradient>
<radialGradient id="mk96" cx="0.5" cy="0.5" r="0.6"><stop offset="0" stop-color="#f6e3c3"/><stop offset="1" stop-color="#e2d1b3"/></radialGradient></defs><ellipse cx="400" cy="452" rx="300" ry="78" fill="#d9cfc1"/><ellipse cx="400" cy="444" rx="300" ry="76" fill="url(#pl95)"/>
<ellipse cx="400" cy="440" rx="236" ry="54" fill="#efe7da"/>
<path d="M188 440 C200 405 300 400 400 404 C520 400 610 412 612 440 C606 474 500 488 400 486 C290 488 194 474 188 440Z" fill="url(#mk96)"/>
<ellipse cx="320" cy="455" rx="60" ry="8" fill="#fff" opacity="0.45"/><path d="M510 282 L562 242 L562 392 L510 432Z" fill="#cbb281"/>
<path d="M250 282 L510 282 L510 432 L250 432Z" fill="#f2d49a"/>
<path d="M250 386 L510 386 L510 432 L250 432Z" fill="#dabf8b" opacity="0.8"/>
<path d="M250 424 Q380 438 510 424 L510 432 L250 432Z" fill="#f6e3c3"/><ellipse cx="485.1" cy="396.3" rx="2.5" ry="1.7" fill="#d4ae6c" opacity="0.6"/><ellipse cx="364.6" cy="364.5" rx="1.7" ry="1.7" fill="#d4ae6c" opacity="0.6"/><ellipse cx="263.9" cy="378.8" rx="2.5" ry="1.5" fill="#d4ae6c" opacity="0.6"/><ellipse cx="494.1" cy="321.4" rx="1.8" ry="1.3" fill="#d4ae6c" opacity="0.6"/><ellipse cx="366.5" cy="362.6" rx="2.3" ry="2" fill="#d4ae6c" opacity="0.6"/><ellipse cx="448.7" cy="352.1" rx="2.2" ry="1" fill="#d4ae6c" opacity="0.6"/><ellipse cx="355.1" cy="391.8" rx="2.2" ry="1.7" fill="#d4ae6c" opacity="0.6"/><ellipse cx="464.8" cy="356.1" rx="1" ry="1.1" fill="#d4ae6c" opacity="0.6"/><ellipse cx="279.8" cy="346.8" rx="2.7" ry="1.9" fill="#d4ae6c" opacity="0.6"/><ellipse cx="372.7" cy="341.1" rx="3" ry="1.1" fill="#d4ae6c" opacity="0.6"/><ellipse cx="377.7" cy="362.5" rx="2" ry="1.7" fill="#d4ae6c" opacity="0.6"/><ellipse cx="378.5" cy="400.1" rx="1.2" ry="1" fill="#d4ae6c" opacity="0.6"/><ellipse cx="293.1" cy="321.2" rx="1.3" ry="2.1" fill="#d4ae6c" opacity="0.6"/><ellipse cx="467.9" cy="388.3" rx="2.2" ry="1.3" fill="#d4ae6c" opacity="0.6"/><ellipse cx="315.3" cy="417.9" rx="2.7" ry="1.3" fill="#d4ae6c" opacity="0.6"/><ellipse cx="380.7" cy="367.3" rx="2.5" ry="0.9" fill="#d4ae6c" opacity="0.6"/><ellipse cx="414.4" cy="334.1" rx="1.7" ry="1" fill="#d4ae6c" opacity="0.6"/><ellipse cx="492.4" cy="365.1" rx="2.2" ry="1.2" fill="#d4ae6c" opacity="0.6"/><ellipse cx="310.7" cy="394.3" rx="2.8" ry="1.7" fill="#d4ae6c" opacity="0.6"/><ellipse cx="326.9" cy="346.9" rx="1.1" ry="2" fill="#d4ae6c" opacity="0.6"/><ellipse cx="363.5" cy="349.7" rx="1.9" ry="1.4" fill="#d4ae6c" opacity="0.6"/><ellipse cx="421" cy="400.7" rx="2.1" ry="2.1" fill="#d4ae6c" opacity="0.6"/><ellipse cx="404.7" cy="364.1" rx="2.2" ry="1.1" fill="#d4ae6c" opacity="0.6"/><ellipse cx="469.8" cy="339.2" rx="2.9" ry="1.5" fill="#d4ae6c" opacity="0.6"/><ellipse cx="295.9" cy="385.6" rx="2.7" ry="2.1" fill="#d4ae6c" opacity="0.6"/><ellipse cx="279.2" cy="376.8" rx="2.5" ry="1" fill="#d4ae6c" opacity="0.6"/><ellipse cx="302" cy="358.3" rx="2.8" ry="1.9" fill="#d4ae6c" opacity="0.6"/><ellipse cx="260.6" cy="411.9" rx="1" ry="1.2" fill="#d4ae6c" opacity="0.6"/><ellipse cx="359" cy="339.9" rx="2.8" ry="2" fill="#d4ae6c" opacity="0.6"/><ellipse cx="489.7" cy="383.4" rx="2.2" ry="1.5" fill="#d4ae6c" opacity="0.6"/><ellipse cx="280.6" cy="362.5" rx="1.9" ry="1.4" fill="#d4ae6c" opacity="0.6"/><ellipse cx="264.8" cy="334.8" rx="1.8" ry="1.8" fill="#d4ae6c" opacity="0.6"/><ellipse cx="321.6" cy="390.3" rx="1.3" ry="1" fill="#d4ae6c" opacity="0.6"/><ellipse cx="368.4" cy="348.4" rx="2.1" ry="1.5" fill="#d4ae6c" opacity="0.6"/><ellipse cx="337" cy="390.6" rx="2" ry="0.9" fill="#d4ae6c" opacity="0.6"/><ellipse cx="477.5" cy="351" rx="2" ry="0.9" fill="#d4ae6c" opacity="0.6"/><ellipse cx="458" cy="412.5" rx="1.3" ry="2" fill="#d4ae6c" opacity="0.6"/><ellipse cx="328.2" cy="377.5" rx="2.6" ry="0.9" fill="#d4ae6c" opacity="0.6"/><ellipse cx="300" cy="386.5" rx="2.2" ry="0.9" fill="#d4ae6c" opacity="0.6"/><ellipse cx="313.3" cy="337.3" rx="2.4" ry="1.2" fill="#d4ae6c" opacity="0.6"/><ellipse cx="302.9" cy="318.6" rx="2.9" ry="1.7" fill="#d4ae6c" opacity="0.6"/><ellipse cx="411.6" cy="344.4" rx="1.5" ry="1.9" fill="#d4ae6c" opacity="0.6"/><ellipse cx="272.9" cy="385.5" rx="2" ry="0.8" fill="#d4ae6c" opacity="0.6"/><ellipse cx="360" cy="352.6" rx="2.3" ry="1.5" fill="#d4ae6c" opacity="0.6"/><ellipse cx="380.4" cy="403.1" rx="2.5" ry="1.5" fill="#d4ae6c" opacity="0.6"/><ellipse cx="474.5" cy="385.1" rx="1.8" ry="1.2" fill="#d4ae6c" opacity="0.6"/><ellipse cx="330.5" cy="367.1" rx="2.2" ry="1.9" fill="#d4ae6c" opacity="0.6"/><ellipse cx="310.6" cy="328.7" rx="1.6" ry="1.9" fill="#d4ae6c" opacity="0.6"/><ellipse cx="277.5" cy="381.5" rx="2.6" ry="1.9" fill="#d4ae6c" opacity="0.6"/><ellipse cx="493.3" cy="327.7" rx="1.7" ry="1.2" fill="#d4ae6c" opacity="0.6"/><ellipse cx="302.1" cy="374.9" rx="3" ry="1.8" fill="#d4ae6c" opacity="0.6"/><ellipse cx="494" cy="367.5" rx="2.7" ry="1.6" fill="#d4ae6c" opacity="0.6"/><ellipse cx="273.4" cy="339.8" rx="2.9" ry="0.9" fill="#d4ae6c" opacity="0.6"/><ellipse cx="301.9" cy="334.7" rx="2.1" ry="1.2" fill="#d4ae6c" opacity="0.6"/><ellipse cx="433.9" cy="337.2" rx="1.9" ry="1.4" fill="#d4ae6c" opacity="0.6"/><ellipse cx="383.1" cy="318.6" rx="2" ry="1.9" fill="#d4ae6c" opacity="0.6"/><ellipse cx="496.8" cy="352.4" rx="2.6" ry="1.2" fill="#d4ae6c" opacity="0.6"/><ellipse cx="493.9" cy="375.1" rx="2.8" ry="1.1" fill="#d4ae6c" opacity="0.6"/><ellipse cx="413.2" cy="331.9" rx="1.7" ry="1.7" fill="#d4ae6c" opacity="0.6"/><ellipse cx="290.3" cy="409.8" rx="1.6" ry="1.6" fill="#d4ae6c" opacity="0.6"/><ellipse cx="411.4" cy="324.9" rx="2.5" ry="1.5" fill="#d4ae6c" opacity="0.6"/><ellipse cx="333" cy="338.6" rx="1.6" ry="1" fill="#d4ae6c" opacity="0.6"/><ellipse cx="378.5" cy="323.2" rx="2.7" ry="1.6" fill="#d4ae6c" opacity="0.6"/><ellipse cx="500.6" cy="352.8" rx="2" ry="1.8" fill="#d4ae6c" opacity="0.6"/><ellipse cx="289.9" cy="391.6" rx="1.8" ry="1.9" fill="#d4ae6c" opacity="0.6"/><ellipse cx="500.8" cy="406.7" rx="2.7" ry="1.1" fill="#d4ae6c" opacity="0.6"/><ellipse cx="303.4" cy="322.5" rx="1.2" ry="2" fill="#d4ae6c" opacity="0.6"/><ellipse cx="392.7" cy="388.8" rx="1.5" ry="1.5" fill="#d4ae6c" opacity="0.6"/><ellipse cx="470.2" cy="393.1" rx="2.7" ry="2" fill="#d4ae6c" opacity="0.6"/><ellipse cx="399.7" cy="417.4" rx="3" ry="1.7" fill="#d4ae6c" opacity="0.6"/><ellipse cx="464.2" cy="373.9" rx="2.5" ry="0.9" fill="#d4ae6c" opacity="0.6"/><ellipse cx="446.1" cy="390.9" rx="2.4" ry="1.3" fill="#d4ae6c" opacity="0.6"/><ellipse cx="267.9" cy="380.6" rx="1.4" ry="1.1" fill="#d4ae6c" opacity="0.6"/><ellipse cx="401.6" cy="410.2" rx="2.9" ry="1.2" fill="#d4ae6c" opacity="0.6"/><ellipse cx="448.5" cy="346.9" rx="1.9" ry="1.2" fill="#d4ae6c" opacity="0.6"/><ellipse cx="386.9" cy="413.9" rx="2.3" ry="1.9" fill="#d4ae6c" opacity="0.6"/><ellipse cx="437.1" cy="405.4" rx="2.6" ry="1.6" fill="#d4ae6c" opacity="0.6"/><ellipse cx="314.3" cy="399.3" rx="3" ry="1.4" fill="#d4ae6c" opacity="0.6"/><ellipse cx="458.3" cy="338.9" rx="2.7" ry="1.7" fill="#d4ae6c" opacity="0.6"/><ellipse cx="357.4" cy="401.2" rx="1" ry="1.1" fill="#d4ae6c" opacity="0.6"/><ellipse cx="375.4" cy="335.5" rx="3" ry="1.6" fill="#d4ae6c" opacity="0.6"/><ellipse cx="365.6" cy="403.6" rx="1.4" ry="1.8" fill="#d4ae6c" opacity="0.6"/><ellipse cx="330" cy="334.8" rx="2.2" ry="1.9" fill="#d4ae6c" opacity="0.6"/><ellipse cx="346.6" cy="344.2" rx="2" ry="1.6" fill="#d4ae6c" opacity="0.6"/><ellipse cx="346.1" cy="397" rx="2.9" ry="1.2" fill="#d4ae6c" opacity="0.6"/><ellipse cx="279.3" cy="403.9" rx="1" ry="1.9" fill="#d4ae6c" opacity="0.6"/><ellipse cx="499" cy="397.7" rx="2.5" ry="1.1" fill="#d4ae6c" opacity="0.6"/><ellipse cx="311.2" cy="345.8" rx="1.2" ry="2.1" fill="#d4ae6c" opacity="0.6"/><ellipse cx="369.5" cy="347" rx="1.1" ry="1" fill="#d4ae6c" opacity="0.6"/><ellipse cx="285" cy="359.7" rx="1.7" ry="1.3" fill="#d4ae6c" opacity="0.6"/><path d="M250 274 L510 274 L510 308 Q380 316 250 308Z" fill="#fffaf1"/>
<path d="M510 274 L562 234 L562 266 L510 308Z" fill="#efe5d4"/>
<path d="M250 274 L302 234 L562 234 L510 274Z" fill="#fffdf8"/><path d="M270 274 q13 -16 26 -20 t26 -20" stroke="#c7843c" stroke-width="5" fill="none" stroke-linecap="round"/><path d="M306 274 q13 -16 26 -20 t26 -20" stroke="#c7843c" stroke-width="5" fill="none" stroke-linecap="round"/><path d="M342 274 q13 -16 26 -20 t26 -20" stroke="#c7843c" stroke-width="5" fill="none" stroke-linecap="round"/><path d="M378 274 q13 -16 26 -20 t26 -20" stroke="#c7843c" stroke-width="5" fill="none" stroke-linecap="round"/><path d="M414 274 q13 -16 26 -20 t26 -20" stroke="#c7843c" stroke-width="5" fill="none" stroke-linecap="round"/><path d="M450 274 q13 -16 26 -20 t26 -20" stroke="#c7843c" stroke-width="5" fill="none" stroke-linecap="round"/><path d="M486 274 q13 -16 26 -20 t26 -20" stroke="#c7843c" stroke-width="5" fill="none" stroke-linecap="round"/><path d="M480 274 q4 20 2 44" stroke="#c7843c" stroke-width="6" stroke-linecap="round"/><path d="M290 274 q-2 16 0 30" stroke="#c7843c" stroke-width="5" stroke-linecap="round"/><g transform="translate(406 250)">
<ellipse cx="0" cy="7" rx="21" ry="11" fill="#aa7e45" opacity="0.35"/>
<path d="M-20 0 C-20 -18 20 -18 20 0 C20 11 -20 11 -20 0Z" fill="#e3a85c"/>
<path d="M-14 -1 C-12 -14 12 -14 11 -1 M-9 -6 C-5 -19 7 -19 6 -7" fill="none" stroke="#ba8a4b" stroke-width="2.4" stroke-linecap="round" opacity="0.55"/>
<path d="M-3 -15 Q0 -23 2 -14" fill="#e3a85c" stroke="#ba8a4b" stroke-width="1.6" opacity="0.9"/>
<ellipse cx="-7" cy="-9" rx="4" ry="2" fill="#fff" opacity="0.55"/>
</g>
</g>
<rect width="800" height="600" fill="url(#vg100)"/>
</svg>