<svg xmlns="http://www.w3.org/2000/svg" viewBox="0 0 800 600" width="800" height="600">
<defs>
<linearGradient id="bg91" x1="0" y1="0" x2="0" y2="1"><stop offset="0" stop-color="#f1efe2"/><stop offset="1" stop-color="#e9e6d2"/></linearGradient>
<linearGradient id="tb92" x1="0" y1="0" x2="0" y2="1"><stop offset="0" stop-color="#ddd6c2"/><stop offset="1" stop-color="#c2bcab"/></linearGradient>
<radialGradient id="vg94" cx="0.5" cy="0.38" r="0.75"><stop offset="0.55" stop-color="#000" stop-opacity="0"/><stop offset="1" stop-color="#3b2418" stop-opacity="0.18"/></radialGradient>
<filter id="sh93" x="-20%" y="-50%" width="140%" height="200%"><feGaussianBlur stdDeviation="14"/></filter>
</defs>
<rect width="800" height="600" fill="url(#bg91)"/>
<circle cx="610" cy="120" r="210" fill="#fff" opacity="0.22"/>
<circle cx="140" cy="90" r="120" fill="#fff" opacity="0.12"/>
<rect y="455" width="800" height="145" fill="url(#tb92)"/>
<rect y="455" width="800" height="2" fill="#fff" opacity="0.35"/>
<g transform="translate(400 410) scale(1.17) translate(-400 -410)">
<ellipse cx="400" cy="545" rx="270" ry="26" fill="#3b2418" opacity="0.22" filter="url(#sh93)"/>
<defs><radialGradient id="pl89" cx="0.5" cy="0.4" r="0.6"><stop offset="0" stop-color="#ffffff"/><stop offset="1" stop-color="#e8e0d4"/></radialGradient>
<radialGradient id="mk90" cx="0.5" cy="0.5" r="0.6"><stop offset="0" stop-color="#f6f0dc"/><stop offset="1" stop-color="#e2ddca"/></radialGradient></defs><ellipse cx="400" cy="452" rx="300" ry="78" fill="#d9cfc1"/><ellipse cx="400" cy="444" rx="300" ry="76" fill="url(#pl89)"/>
<ellipse cx="400" cy="440" rx="236" ry="54" fill="#efe7da"/>
<path d="M188 440 C200 405 300 400 400 404 C520 400 610 412 612 440 C606 474 500 488 400 486 C290 488 194 474 188 440Z" fill="url(#mk90)"/>
<ellipse cx="320" cy="455" rx="60" ry="8" fill="#fff" opacity="0.45"/><path d="M510 282 L562 242 L562 392 L510 432Z" fill="#cbb281"/>
<path d="M250 282 L510 282 L510 432 L250 432Z" fill="#f2d49a"/>
<path d="M250 386 L510 386 L510 432 L250 432Z" fill="#dabf8b" opacity="0.8"/>
<path d="M250 424 Q380 438 510 424 L510 432 L250 432Z" fill="#f6f0dc"/><ellipse cx="372.4" cy="402" rx="1.5" ry="1.7" fill="#d4ae6c" opacity="0.6"/><ellipse cx="376.6" cy="321.3" rx="2.7" ry="1.7" fill="#d4ae6c" opacity="0.6"/><ellipse cx="324.7" cy="324.4" rx="2.2" ry="2" fill="#d4ae6c" opacity="0.6"/><ellipse cx="499.5" cy="350.3" rx="2.4" ry="1" fill="#d4ae6c" opacity="0.6"/><ellipse cx="490.4" cy="337.9" rx="1.9" ry="1.8" fill="#d4ae6c" opacity="0.6"/><ellipse cx="278.3" cy="407.1" rx="1.4" ry="1.9" fill="#d4ae6c" opacity="0.6"/><ellipse cx="311.5" cy="410.2" rx="2.1" ry="2" fill="#d4ae6c" opacity="0.6"/><ellipse cx="276" cy="340.2" rx="2.8" ry="1.5" fill="#d4ae6c" opacity="0.6"/><ellipse cx="453.9" cy="390.5" rx="2.7" ry="1.6" fill="#d4ae6c" opacity="0.6"/><ellipse cx="495.6" cy="391.2" rx="2.9" ry="0.8" fill="#d4ae6c" opacity="0.6"/><ellipse cx="436.2" cy="400.1" rx="1.5" ry="1.9" fill="#d4ae6c" opacity="0.6"/><ellipse cx="410.2" cy="416.4" rx="2.4" ry="1.7" fill="#d4ae6c" opacity="0.6"/><ellipse cx="450" cy="394.4" rx="3" ry="0.9" fill="#d4ae6c" opacity="0.6"/><ellipse cx="298.9" cy="406.2" rx="2.1" ry="1" fill="#d4ae6c" opacity="0.6"/><ellipse cx="258.9" cy="326.5" rx="2.2" ry="1.1" fill="#d4ae6c" opacity="0.6"/><ellipse cx="398.1" cy="401.6" rx="1.9" ry="1.1" fill="#d4ae6c" opacity="0.6"/><ellipse cx="297.8" cy="335.6" rx="2.4" ry="1.3" fill="#d4ae6c" opacity="0.6"/><ellipse cx="375.5" cy="328.8" rx="1.2" ry="1.8" fill="#d4ae6c" opacity="0.6"/><ellipse cx="272.4" cy="350.9" rx="2.5" ry="1.7" fill="#d4ae6c" opacity="0.6"/><ellipse cx="476.2" cy="367.8" rx="1.9" ry="1.5" fill="#d4ae6c" opacity="0.6"/><ellipse cx="426.4" cy="365.3" rx="1.5" ry="1" fill="#d4ae6c" opacity="0.6"/><ellipse cx="341.1" cy="371.9" rx="2.2" ry="1.7" fill="#d4ae6c" opacity="0.6"/><ellipse cx="411.7" cy="334.9" rx="1.6" ry="1.1" fill="#d4ae6c" opacity="0.6"/><ellipse cx="486.5" cy="331.6" rx="2.8" ry="1.6" fill="#d4ae6c" opacity="0.6"/><ellipse cx="378.3" cy="341.7" rx="1.3" ry="1.5" fill="#d4ae6c" opacity="0.6"/><ellipse cx="311.1" cy="350.3" rx="2.6" ry="1.6" fill="#d4ae6c" opacity="0.6"/><ellipse cx="458.1" cy="372.3" rx="2.2" ry="1" fill="#d4ae6c" opacity="0.6"/><ellipse cx="373.4" cy="347.6" rx="2.3" ry="1.1" fill="#d4ae6c" opacity="0.6"/><ellipse cx="461.2" cy="357.1" rx="1.2" ry="1" fill="#d4ae6c" opacity="0.6"/><ellipse cx="469" cy="326.7" rx="1.4" ry="2" fill="#d4ae6c" opacity="0.6"/><ellipse cx="387.7" cy="339.9" rx="2.9" ry="0.9" fill="#d4ae6c" opacity="0.6"/><ellipse cx="324.3" cy="399.7" rx="2.5" ry="1.1" fill="#d4ae6c" opacity="0.6"/><ellipse cx="336.4" cy="379.5" rx="2.2" ry="1.4" fill="#d4ae6c" opacity="0.6"/><ellipse cx="448.3" cy="337.9" rx="1.2" ry="2.1" fill="#d4ae6c" opacity="0.6"/><ellipse cx="499.1" cy="417.7" rx="2.3" ry="1.4" fill="#d4ae6c" opacity="0.6"/><ellipse cx="340.6" cy="403" rx="2.4" ry="1.1" fill="#d4ae6c" opacity="0.6"/><ellipse cx="315.9" cy="409.6" rx="1.7" ry="2.1" fill="#d4ae6c" opacity="0.6"/><ellipse cx="340.6" cy="398.2" rx="2.9" ry="2" fill="#d4ae6c" opacity="0.6"/><ellipse cx="362.6" cy="347.6" rx="1.8" ry="1.5" fill="#d4ae6c" opacity="0.6"/><ellipse cx="464.1" cy="331" rx="3" ry="1.9" fill="#d4ae6c" opacity="0.6"/><ellipse cx="405.4" cy="403.8" rx="2.8" ry="1.4" fill="#d4ae6c" opacity="0.6"/><ellipse cx="463.3" cy="354.5" rx="1" ry="2" fill="#d4ae6c" opacity="0.6"/><ellipse cx="485.2" cy="404.7" rx="2.3" ry="1" fill="#d4ae6c" opacity="0.6"/><ellipse cx="475.5" cy="367.9" rx="2.5" ry="1.7" fill="#d4ae6c" opacity="0.6"/><ellipse cx="468.8" cy="371.7" rx="2.6" ry="1.2" fill="#d4ae6c" opacity="0.6"/><ellipse cx="431.5" cy="390.1" rx="1.5" ry="1.9" fill="#d4ae6c" opacity="0.6"/><ellipse cx="426.9" cy="384.5" rx="2.5" ry="2" fill="#d4ae6c" opacity="0.6"/><ellipse cx="374.6" cy="370.2" rx="2.4" ry="1.4" fill="#d4ae6c" opacity="0.6"/><ellipse cx="473" cy="403.6" rx="1.8" ry="0.9" fill="#d4ae6c" opacity="0.6"/><ellipse cx="428.2" cy="380.9" rx="1.8" ry="1" fill="#d4ae6c" opacity="0.6"/><ellipse cx="297.1" cy="341.6" rx="2" ry="1.3" fill="#d4ae6c" opacity="0.6"/><ellipse cx="393.8" cy="341" rx="2.5" ry="1.3" fill="#d4ae6c" opacity="0.6"/><ellipse cx="349.8" cy="346.2" rx="1.3" ry="2" fill="#d4ae6c" opacity="0.6"/><ellipse cx="414" cy="384.1" rx="2.8" ry="1.2" fill="#d4ae6c" opacity="0.6"/><ellipse cx="406.3" cy="410.6" rx="2.4" ry="1.5" fill="#d4ae6c" opacity="0.6"/><ellipse cx="317.2" cy="401.8" rx="2.1" ry="1.3" fill="#d4ae6c" opacity="0.6"/><ellipse cx="502" cy="345.1" rx="1.3" ry="2" fill="#d4ae6c" opacity="0.6"/><ellipse cx="284.3" cy="357.1" rx="2.8" ry="1.1" fill="#d4ae6c" opacity="0.6"/><ellipse cx="289.5" cy="321.7" rx="1.5" ry="1.1" fill="#d4ae6c" opacity="0.6"/><ellipse cx="498.1" cy="353.8" rx="2.7" ry="2" fill="#d4ae6c" opacity="0.6"/><ellipse cx="415" cy="413.2" rx="2.1" ry="1" fill="#d4ae6c" opacity="0.6"/><ellipse cx="258.8" cy="416" rx="2.2" ry="1.9" fill="#d4ae6c" opacity="0.6"/><ellipse cx="440.8" cy="366.2" rx="2.3" ry="2.1" fill="#d4ae6c" opacity="0.6"/><ellipse cx="462.2" cy="321.6" rx="2.2" ry="1.1" fill="#d4ae6c" opacity="0.6"/><ellipse cx="446.4" cy="362.3" rx="1.2" ry="1" fill="#d4ae6c" opacity="0.6"/><ellipse cx="500.7" cy="363.7" rx="2.3" ry="1.3" fill="#d4ae6c" opacity="0.6"/><ellipse cx="449.9" cy="406.8" rx="1.6" ry="1.4" fill="#d4ae6c" opacity="0.6"/><ellipse cx="403" cy="368.7" rx="2.8" ry="1.9" fill="#d4ae6c" opacity="0.6"/><ellipse cx="422.9" cy="357.9" rx="3" ry="0.9" fill="#d4ae6c" opacity="0.6"/><ellipse cx="436" cy="338.6" rx="2.1" ry="1.5" fill="#d4ae6c" opacity="0.6"/><ellipse cx="402.5" cy="392.1" rx="1.1" ry="1.8" fill="#d4ae6c" opacity="0.6"/><ellipse cx="340.4" cy="397.5" rx="2.1" ry="1.1" fill="#d4ae6c" opacity="0.6"/><ellipse cx="361.4" cy="417.1" rx="1.7" ry="1.6" fill="#d4ae6c" opacity="0.6"/><ellipse cx="314.9" cy="344.3" rx="1.9" ry="0.8" fill="#d4ae6c" opacity="0.6"/><ellipse cx="280.7" cy="376.3" rx="1.8" ry="1.6" fill="#d4ae6c" opacity="0.6"/><ellipse cx="435.5" cy="416.5" rx="2.8" ry="1.7" fill="#d4ae6c" opacity="0.6"/><ellipse cx="296.1" cy="362.3" rx="1.2" ry="1.7" fill="#d4ae6c" opacity="0.6"/><ellipse cx="298.2" cy="372.1" rx="2.8" ry="1" fill="#d4ae6c" opacity="0.6"/><ellipse cx="280.4" cy="411.6" rx="2.7" ry="0.9" fill="#d4ae6c" opacity="0.6"/><ellipse cx="378.4" cy="323.6" rx="1.4" ry="1.1" fill="#d4ae6c" opacity="0.6"/><ellipse cx="457.1" cy="390.7" rx="1.3" ry="2" fill="#d4ae6c" opacity="0.6"/><ellipse cx="492.5" cy="416.2" rx="1.8" ry="1.5" fill="#d4ae6c" opacity="0.6"/><ellipse cx="339.8" cy="319" rx="2.8" ry="1.5" fill="#d4ae6c" opacity="0.6"/><ellipse cx="474" cy="395.1" rx="1.9" ry="1.4" fill="#d4ae6c" opacity="0.6"/><ellipse cx="300.4" cy="341.6" rx="2.9" ry="1.2" fill="#d4ae6c" opacity="0.6"/><ellipse cx="475.6" cy="325.9" rx="3" ry="0.9" fill="#d4ae6c" opacity="0.6"/><ellipse cx="474.6" cy="333.8" rx="2.4" ry="1.9" fill="#d4ae6c" opacity="0.6"/><ellipse cx="445.3" cy="373.9" rx="2.7" ry="1.2" fill="#d4ae6c" opacity="0.6"/><ellipse cx="357.4" cy="341.3" rx="2.5" ry="1.2" fill="#d4ae6c" opacity="0.6"/><ellipse cx="441" cy="319.7" rx="2.2" ry="2.1" fill="#d4ae6c" opacity="0.6"/><path d="M250 274 L510 274 L510 308 Q380 316 250 308Z" fill="#fffaf1"/>
<path d="M510 274 L562 234 L562 266 L510 308Z" fill="#efe5d4"/>
<path d="M250 274 L302 234 L562 234 L510 274Z" fill="#fffdf8"/><rect x="533.5" y="247.9" width="4.2" height="4.1" rx="1" fill="#93b14b" transform="rotate(68 533.5 247.9)"/><rect x="397.1" y="271.5" width="3.4" height="3.4" rx="1" fill="#93b14b" transform="rotate(18.2 397.1 271.5)"/><rect x="355.1" y="272.6" width="5.8" height="3.7" rx="1" fill="#93b14b" transform="rotate(39.1 355.1 272.6)"/><rect x="462.8" y="240.1" width="4" height="3.1" rx="1" fill="#93b14b" transform="rotate(54.3 462.8 240.1)"/><rect x="455.2" y="234.7" width="6.5" height="2.5" rx="1" fill="#c9d97a" transform="rotate(54.8 455.2 234.7)"/><rect x="395.2" y="262.7" width="3.2" height="4.6" rx="1" fill="#93b14b" transform="rotate(32.7 395.2 262.7)"/><rect x="367.4" y="254.4" width="4.5" height="2.7" rx="1" fill="#93b14b" transform="rotate(56.7 367.4 254.4)"/><rect x="417.6" y="260.4" width="6.8" height="2.9" rx="1" fill="#93b14b" transform="rotate(5.3 417.6 260.4)"/><rect x="323" y="252.7" width="6.6" height="2.3" rx="1" fill="#93b14b" transform="rotate(59.4 323 252.7)"/><rect x="381" y="239.5" width="4.6" height="4.3" rx="1" fill="#93b14b" transform="rotate(89.6 381 239.5)"/><rect x="351.1" y="246.6" width="6.8" height="2.9" rx="1" fill="#93b14b" transform="rotate(34.5 351.1 246.6)"/><rect x="366.5" y="251.9" width="4.8" height="3" rx="1" fill="#c9d97a" transform="rotate(3 366.5 251.9)"/><rect x="480.2" y="242.2" width="6.6" height="4.4" rx="1" fill="#c9d97a" transform="rotate(74.8 480.2 242.2)"/><rect x="485.6" y="251.8" width="4" height="2.9" rx="1" fill="#c9d97a" transform="rotate(67.3 485.6 251.8)"/><rect x="336.3" y="238.3" width="5.7" height="4" rx="1" fill="#93b14b" transform="rotate(36.2 336.3 238.3)"/><rect x="299.5" y="248.5" width="5.8" height="3.7" rx="1" fill="#c9d97a" transform="rotate(89 299.5 248.5)"/><rect x="413.8" y="253.3" width="3.4" height="4.3" rx="1" fill="#c9d97a" transform="rotate(54.8 413.8 253.3)"/><rect x="490.2" y="245.2" width="3.1" height="4.2" rx="1" fill="#93b14b" transform="rotate(45.5 490.2 245.2)"/><rect x="525" y="254" width="4.2" height="3.9" rx="1" fill="#93b14b" transform="rotate(55.3 525 254)"/><rect x="444.3" y="255.5" width="3.9" height="3.5" rx="1" fill="#93b14b" transform="rotate(76.5 444.3 255.5)"/><rect x="507.2" y="270.9" width="3.6" height="3" rx="1" fill="#93b14b" transform="rotate(64 507.2 270.9)"/><rect x="482.6" y="264.4" width="6.9" height="2.6" rx="1" fill="#c9d97a" transform="rotate(9.3 482.6 264.4)"/><rect x="353.8" y="250.8" width="6.2" height="3.5" rx="1" fill="#c9d97a" transform="rotate(80.3 353.8 250.8)"/><rect x="489.6" y="247.2" width="4.4" height="4.9" rx="1" fill="#93b14b" transform="rotate(50.8 489.6 247.2)"/><rect x="283.9" y="261.3" width="4.3" height="2.2" rx="1" fill="#93b14b" transform="rotate(6.9 283.9 261.3)"/><rect x="441" y="247.3" width="5.5" height="4.3" rx="1" fill="#c9d97a" transform="rotate(56.2 441 247.3)"/><rect x="309.8" y="240.9" width="6" height="2.7" rx="1" fill="#c9d97a" transform="rotate(49.6 309.8 240.9)"/><rect x="298.7" y="268.8" width="6" height="4.1" rx="1" fill="#93b14b" transform="rotate(7.9 298.7 268.8)"/><rect x="488.3" y="271.4" width="6.7" height="3.6" rx="1" fill="#93b14b" transform="rotate(55.5 488.3 271.4)"/><rect x="349.7" y="235.6" width="3.6" height="2.9" rx="1" fill="#c9d97a" transform="rotate(5.9 349.7 235.6)"/><rect x="448" y="236.3" width="3.8" height="3" rx="1" fill="#93b14b" transform="rotate(46.2 448 236.3)"/><rect x="261.1" y="267.3" width="4.5" height="4.2" rx="1" fill="#c9d97a" transform="rotate(45.2 261.1 267.3)"/><rect x="505.5" y="256.2" width="3.7" height="4.4" rx="1" fill="#93b14b" transform="rotate(89.3 505.5 256.2)"/><rect x="387.6" y="267.7" width="4.3" height="4.1" rx="1" fill="#93b14b" transform="rotate(66.6 387.6 267.7)"/><rect x="479.3" y="264.1" width="4.6" height="4" rx="1" fill="#c9d97a" transform="rotate(68 479.3 264.1)"/><rect x="271.8" y="268.5" width="6" height="3.3" rx="1" fill="#c9d97a" transform="rotate(77.9 271.8 268.5)"/><rect x="501.8" y="234.6" width="6.5" height="2.1" rx="1" fill="#93b14b" transform="rotate(47.9 501.8 234.6)"/><rect x="327.1" y="268.9" width="6.6" height="4.1" rx="1" fill="#93b14b" transform="rotate(31.7 327.1 268.9)"/><rect x="406.5" y="250.5" width="5.9" height="4.1" rx="1" fill="#93b14b" transform="rotate(32.6 406.5 250.5)"/><rect x="281.3" y="255.4" width="5.4" height="2.2" rx="1" fill="#93b14b" transform="rotate(58.4 281.3 255.4)"/><rect x="309.7" y="265.5" width="3.4" height="5" rx="1" fill="#93b14b" transform="rotate(88.5 309.7 265.5)"/><rect x="379.1" y="245.9" width="4" height="4.1" rx="1" fill="#c9d97a" transform="rotate(39.4 379.1 245.9)"/><rect x="416.7" y="252.9" width="6.6" height="2.4" rx="1" fill="#93b14b" transform="rotate(88.9 416.7 252.9)"/><rect x="302.4" y="246.6" width="3.8" height="4.1" rx="1" fill="#93b14b" transform="rotate(3.8 302.4 246.6)"/><rect x="355.2" y="262.7" width="3.1" height="2.2" rx="1" fill="#c9d97a" transform="rotate(63.7 355.2 262.7)"/><rect x="292.4" y="266.5" width="3.9" height="2.8" rx="1" fill="#c9d97a" transform="rotate(20.1 292.4 266.5)"/><rect x="357.3" y="245.3" width="6.5" height="3.7" rx="1" fill="#93b14b" transform="rotate(85.8 357.3 245.3)"/><rect x="501.1" y="270.4" width="3.2" height="4.6" rx="1" fill="#c9d97a" transform="rotate(29.9 501.1 270.4)"/><rect x="338" y="239.8" width="6.5" height="2.1" rx="1" fill="#c9d97a" transform="rotate(18.9 338 239.8)"/><rect x="542.7" y="248" width="5.5" height="3.7" rx="1" fill="#93b14b" transform="rotate(55.9 542.7 248)"/><rect x="430.8" y="234" width="4.7" height="3.2" rx="1" fill="#c9d97a" transform="rotate(7 430.8 234)"/><rect x="376.1" y="267.2" width="5.8" height="2.2" rx="1" fill="#c9d97a" transform="rotate(62 376.1 267.2)"/><rect x="371" y="248.1" width="4.5" height="3.2" rx="1" fill="#c9d97a" transform="rotate(36.1 371 248.1)"/><rect x="399" y="248.7" width="3.6" height="4.2" rx="1" fill="#93b14b" transform="rotate(66.9 399 248.7)"/><rect x="363.7" y="259.9" width="3.6" height="4.4" rx="1" fill="#c9d97a" transform="rotate(51.3 363.7 259.9)"/><rect x="327.3" y="261" width="6.1" height="3.2" rx="1" fill="#93b14b" transform="rotate(36.6 327.3 261)"/><rect x="479" y="243.5" width="6.2" height="2.4" rx="1" fill="#93b14b" transform="rotate(51.3 479 243.5)"/><rect x="363.7" y="263.9" width="3.3" height="3.3" rx="1" fill="#93b14b" transform="rotate(20.2 363.7 263.9)"/><rect x="533.9" y="250.8" width="6.4" height="4.1" rx="1" fill="#93b14b" transform="rotate(47.9 533.9 250.8)"/><rect x="476.2" y="257" width="4.5" height="3.4" rx="1" fill="#c9d97a" transform="rotate(74.5 476.2 257)"/><rect x="398.6" y="259.3" width="6.4" height="3.9" rx="1" fill="#93b14b" transform="rotate(49.4 398.6 259.3)"/><rect x="421.3" y="269.2" width="4.2" height="3" rx="1" fill="#93b14b" transform="rotate(22.1 421.3 269.2)"/><rect x="376.8" y="234.2" width="4.2" height="2.1" rx="1" fill="#93b14b" transform="rotate(43.4 376.8 234.2)"/><rect x="384.8" y="269.2" width="3.8" height="4.6" rx="1" fill="#93b14b" transform="rotate(47.2 384.8 269.2)"/><rect x="514.1" y="243.1" width="6.7" height="4.8" rx="1" fill="#93b14b" transform="rotate(53.7 514.1 243.1)"/><rect x="322.9" y="256.3" width="5" height="3.4" rx="1" fill="#93b14b" transform="rotate(44.6 322.9 256.3)"/><rect x="432" y="264.1" width="6.9" height="3.6" rx="1" fill="#c9d97a" transform="rotate(65.7 432 264.1)"/><rect x="333.7" y="253.4" width="6.6" height="3.7" rx="1" fill="#93b14b" transform="rotate(70.3 333.7 253.4)"/><rect x="264.5" y="269.8" width="3.3" height="3.5" rx="1" fill="#93b14b" transform="rotate(43.9 264.5 269.8)"/><rect x="298.7" y="273.2" width="4.3" height="3" rx="1" fill="#c9d97a" transform="rotate(65.2 298.7 273.2)"/><rect x="459.5" y="260.1" width="4.7" height="3.2" rx="1" fill="#93b14b" transform="rotate(18 459.5 260.1)"/><rect x="525.9" y="242.6" width="3.6" height="2.2" rx="1" fill="#c9d97a" transform="rotate(63.8 525.9 242.6)"/><rect x="381.5" y="244.2" width="6.9" height="4.6" rx="1" fill="#c9d97a" transform="rotate(42.9 381.5 244.2)"/><rect x="528.3" y="249.3" width="5.9" height="3.4" rx="1" fill="#93b14b" transform="rotate(87.9 528.3 249.3)"/><rect x="489.7" y="249.6" width="6.2" height="3.3" rx="1" fill="#c9d97a" transform="rotate(63.6 489.7 249.6)"/><rect x="365.8" y="266.7" width="3.4" height="2.8" rx="1" fill="#c9d97a" transform="rotate(71.9 365.8 266.7)"/><rect x="382.8" y="269.4" width="5.9" height="2.9" rx="1" fill="#93b14b" transform="rotate(89.6 382.8 269.4)"/><rect x="346.6" y="238" width="5.1" height="4.1" rx="1" fill="#c9d97a" transform="rotate(0.7 346.6 238)"/><rect x="473.5" y="240.7" width="4.4" height="3.3" rx="1" fill="#c9d97a" transform="rotate(8.3 473.5 240.7)"/><rect x="417" y="268.3" width="3.3" height="4.4" rx="1" fill="#c9d97a" transform="rotate(43.1 417 268.3)"/><rect x="460.1" y="242.7" width="6.6" height="4.7" rx="1" fill="#c9d97a" transform="rotate(0.3 460.1 242.7)"/><rect x="411" y="250.3" width="3.5" height="3.5" rx="1" fill="#93b14b" transform="rotate(64.9 411 250.3)"/><rect x="434.5" y="236.9" width="5.2" height="4.5" rx="1" fill="#93b14b" transform="rotate(85.4 434.5 236.9)"/><rect x="434.2" y="254.6" width="5.4" height="4.7" rx="1" fill="#93b14b" transform="rotate(52.3 434.2 254.6)"/><rect x="496.9" y="261.3" width="5.7" height="2.8" rx="1" fill="#93b14b" transform="rotate(77.4 496.9 261.3)"/><rect x="464.5" y="257.5" width="4.5" height="2.6" rx="1" fill="#c9d97a" transform="rotate(43.2 464.5 257.5)"/><rect x="528.2" y="240.8" width="3.6" height="2.8" rx="1" fill="#93b14b" transform="rotate(20.7 528.2 240.8)"/><rect x="408.6" y="252.7" width="6.6" height="4.9" rx="1" fill="#93b14b" transform="rotate(32.1 408.6 252.7)"/><rect x="440.1" y="266.8" width="4.6" height="3.8" rx="1" fill="#93b14b" transform="rotate(1.3 440.1 266.8)"/><rect x="492.6" y="255.2" width="3.4" height="3.9" rx="1" fill="#c9d97a" transform="rotate(43.5 492.6 255.2)"/><rect x="515" y="267.1" width="3.8" height="2.9" rx="1" fill="#c9d97a" transform="rotate(60.6 515 267.1)"/><rect x="382" y="240.2" width="5.9" height="5" rx="1" fill="#93b14b" transform="rotate(68.8 382 240.2)"/><rect x="479.9" y="266.9" width="4.1" height="2.9" rx="1" fill="#93b14b" transform="rotate(23 479.9 266.9)"/><rect x="529.7" y="235.7" width="5.1" height="3.2" rx="1" fill="#c9d97a" transform="rotate(2.2 529.7 235.7)"/><rect x="470.2" y="240.8" width="4.9" height="3.9" rx="1" fill="#93b14b" transform="rotate(21.4 470.2 240.8)"/><rect x="514" y="264.4" width="5.5" height="3" rx="1" fill="#c9d97a" transform="rotate(89.3 514 264.4)"/><rect x="521.8" y="241.5" width="4.2" height="2.2" rx="1" fill="#93b14b" transform="rotate(64.4 521.8 241.5)"/><rect x="345.3" y="246.4" width="4.8" height="4.5" rx="1" fill="#93b14b" transform="rotate(89.2 345.3 246.4)"/><rect x="385.8" y="268.8" width="3.9" height="3.3" rx="1" fill="#c9d97a" transform="rotate(27.4 385.8 268.8)"/><rect x="519.1" y="242.1" width="3.2" height="4.9" rx="1" fill="#93b14b" transform="rotate(75.8 519.1 242.1)"/><rect x="480.9" y="264.1" width="4.7" height="4.5" rx="1" fill="#93b14b" transform="rotate(67.6 480.9 264.1)"/><rect x="544.2" y="241.8" width="3.1" height="2.5" rx="1" fill="#93b14b" transform="rotate(71.8 544.2 241.8)"/><rect x="446.6" y="234" width="4.7" height="4.3" rx="1" fill="#c9d97a" transform="rotate(66.5 446.6 234)"/><rect x="374.6" y="264.8" width="3.6" height="4.4" rx="1" fill="#93b14b" transform="rotate(17.1 374.6 264.8)"/><rect x="525.9" y="242.8" width="6.6" height="4.6" rx="1" fill="#93b14b" transform="rotate(76.8 525.9 242.8)"/><rect x="394.7" y="238.7" width="6.1" height="3.3" rx="1" fill="#93b14b" transform="rotate(83.4 394.7 238.7)"/><rect x="272.5" y="267.9" width="6.6" height="3.8" rx="1" fill="#93b14b" transform="rotate(9.5 272.5 267.9)"/><rect x="356.4" y="270.4" width="6.9" height="2.4" rx="1" fill="#93b14b" transform="rotate(35.9 356.4 270.4)"/><rect x="357.8" y="257.1" width="5.6" height="2.3" rx="1" fill="#93b14b" transform="rotate(37 357.8 257.1)"/><rect x="498.3" y="249.3" width="6.4" height="3.3" rx="1" fill="#c9d97a" transform="rotate(49.6 498.3 249.3)"/><rect x="326.8" y="260.6" width="5.6" height="2.7" rx="1" fill="#93b14b" transform="rotate(28.5 326.8 260.6)"/><rect x="368" y="253.6" width="4" height="3.6" rx="1" fill="#93b14b" transform="rotate(23.8 368 253.6)"/><rect x="485" y="260.1" width="3.1" height="4.4" rx="1" fill="#93b14b" transform="rotate(75.2 485 260.1)"/><rect x="319.5" y="241.3" width="4.4" height="3.9" rx="1" fill="#93b14b" transform="rotate(79.8 319.5 241.3)"/><rect x="512.4" y="248.5" width="5.7" height="3.6" rx="1" fill="#c9d97a" transform="rotate(78.5 512.4 248.5)"/><rect x="460.6" y="262.8" width="6.6" height="3.7" rx="1" fill="#93b14b" transform="rotate(1.1 460.6 262.8)"/><rect x="417.5" y="273.1" width="6.6" height="3.8" rx="1" fill="#93b14b" transform="rotate(30.9 417.5 273.1)"/><rect x="326.7" y="255.3" width="5.5" height="2.4" rx="1" fill="#c9d97a" transform="rotate(83.7 326.7 255.3)"/><rect x="447.2" y="271.6" width="5.5" height="4.2" rx="1" fill="#93b14b" transform="rotate(40.8 447.2 271.6)"/><rect x="306.2" y="273.6" width="6.3" height="2.4" rx="1" fill="#93b14b" transform="rotate(23.8 306.2 273.6)"/><rect x="288.2" y="268" width="6.6" height="2.8" rx="1" fill="#93b14b" transform="rotate(14.7 288.2 268)"/><rect x="468.5" y="234.1" width="6.2" height="2.1" rx="1" fill="#93b14b" transform="rotate(23.4 468.5 234.1)"/><rect x="354.6" y="234.2" width="5.5" height="4.9" rx="1" fill="#c9d97a" transform="rotate(13.3 354.6 234.2)"/><rect x="387.6" y="236.1" width="4.1" height="3.9" rx="1" fill="#93b14b" transform="rotate(24.5 387.6 236.1)"/><rect x="404.4" y="239.3" width="5.1" height="2.4" rx="1" fill="#c9d97a" transform="rotate(44.9 404.4 239.3)"/><rect x="317.4" y="255.9" width="4.5" height="4.7" rx="1" fill="#93b14b" transform="rotate(10.2 317.4 255.9)"/><rect x="296.5" y="268.1" width="6.6" height="5" rx="1" fill="#93b14b" transform="rotate(53.8 296.5 268.1)"/><rect x="341.3" y="262.3" width="3.8" height="3.9" rx="1" fill="#c9d97a" transform="rotate(85.9 341.3 262.3)"/><rect x="297.8" y="251.4" width="5" height="4.6" rx="1" fill="#c9d97a" transform="rotate(70.8 297.8 251.4)"/><rect x="509.8" y="242.7" width="5.1" height="3.5" rx="1" fill="#c9d97a" transform="rotate(24.1 509.8 242.7)"/><rect x="372.1" y="250.5" width="6.9" height="4.6" rx="1" fill="#c9d97a" transform="rotate(56.4 372.1 250.5)"/><rect x="396.4" y="247.7" width="5.4" height="3.8" rx="1" fill="#93b14b" transform="rotate(27.5 396.4 247.7)"/><rect x="432.9" y="244.1" width="4.5" height="4.9" rx="1" fill="#c9d97a" transform="rotate(52.8 432.9 244.1)"/><rect x="466.3" y="246" width="6.5" height="4.4" rx="1" fill="#93b14b" transform="rotate(62.6 466.3 246)"/><rect x="465.6" y="268.6" width="3.5" height="2.4" rx="1" fill="#c9d97a" transform="rotate(66.2 465.6 268.6)"/><rect x="398" y="237.7" width="4.5" height="2.8" rx="1" fill="#93b14b" transform="rotate(36.8 398 237.7)"/><rect x="474.6" y="273.4" width="4" height="2.2" rx="1" fill="#c9d97a" transform="rotate(65.4 474.6 273.4)"/><rect x="344.6" y="266" width="5.9" height="2.3" rx="1" fill="#93b14b" transform="rotate(27.8 344.6 266)"/><rect x="304" y="234.4" width="6.4" height="3.7" rx="1" fill="#93b14b" transform="rotate(5.4 304 234.4)"/><rect x="525.8" y="249.1" width="5.6" height="2.7" rx="1" fill="#93b14b" transform="rotate(84.2 525.8 249.1)"/><rect x="333.1" y="248.6" width="3.4" height="3.5" rx="1" fill="#93b14b" transform="rotate(19 333.1 248.6)"/><rect x="521.9" y="239" width="3.9" height="4.4" rx="1" fill="#93b14b" transform="rotate(79 521.9 239)"/><rect x="467" y="262" width="5.5" height="2" rx="1" fill="#93b14b" transform="rotate(68.8 467 262)"/><rect x="507" y="240.2" width="6.8" height="2.5" rx="1" fill="#c9d97a" transform="rotate(0.3 507 240.2)"/><rect x="373.8" y="262.1" width="5.9" height="2.2" rx="1" fill="#93b14b" transform="rotate(25.5 373.8 262.1)"/><rect x="396.6" y="270.9" width="5.6" height="4.6" rx="1" fill="#c9d97a" transform="rotate(46 396.6 270.9)"/><rect x="500.9" y="235.7" width="4" height="3.2" rx="1" fill="#93b14b" transform="rotate(6.8 500.9 235.7)"/><rect x="434.7" y="244.8" width="5.2" height="2.1" rx="1" fill="#93b14b" transform="rotate(20 434.7 244.8)"/><rect x="409.8" y="243.3" width="5.7" height="4.8" rx="1" fill="#c9d97a" transform="rotate(29.6 409.8 243.3)"/><rect x="402.4" y="262.7" width="5.6" height="2.3" rx="1" fill="#93b14b" transform="rotate(26.7 402.4 262.7)"/><rect x="329.7" y="267.9" width="6.6" height="4.2" rx="1" fill="#93b14b" transform="rotate(35.4 329.7 267.9)"/><rect x="387.7" y="251" width="5.6" height="3.1" rx="1" fill="#93b14b" transform="rotate(15.8 387.7 251)"/><rect x="465.2" y="261.8" width="6.6" height="4.7" rx="1" fill="#93b14b" transform="rotate(85 465.2 261.8)"/><rect x="440.5" y="240.8" width="5.7" height="3.4" rx="1" fill="#c9d97a" transform="rotate(61.4 440.5 240.8)"/><rect x="454.4" y="243" width="3.5" height="5" rx="1" fill="#c9d97a" transform="rotate(60.4 454.4 243)"/><rect x="316.1" y="237.3" width="6.5" height="2.4" rx="1" fill="#93b14b" transform="rotate(18.4 316.1 237.3)"/><rect x="537.7" y="244" width="5.4" height="4.6" rx="1" fill="#c9d97a" transform="rotate(68.4 537.7 244)"/><rect x="331.7" y="264" width="6" height="3.5" rx="1" fill="#c9d97a" transform="rotate(29.2 331.7 264)"/><rect x="269.4" y="262.7" width="6.3" height="3.4" rx="1" fill="#c9d97a" transform="rotate(56.6 269.4 262.7)"/><rect x="471.8" y="259.4" width="5.9" height="3.9" rx="1" fill="#c9d97a" transform="rotate(63 471.8 259.4)"/><g transform="translate(406 250)">
<ellipse cx="0" cy="7" rx="21" ry="11" fill="#bfbcb5" opacity="0.35"/>
<path d="M-20 0 C-20 -18 20 -18 20 0 C20 11 -20 11 -20 0Z" fill="#fffaf1"/>
<path d="M-14 -1 C-12 -14 12 -14 11 -1 M-9 -6 C-5 -19 7 -19 6 -7" fill="none" stroke="#d1cdc6" stroke-width="2.4" stroke-linecap="round" opacity="0.55"/>
<path d="M-3 -15 Q0 -23 2 -14" fill="#fffaf1" stroke="#d1cdc6" stroke-width="1.6" opacity="0.9"/>
<ellipse cx="-7" cy="-9" rx="4" ry="2" fill="#fff" opacity="0.55"/>
</g><path d="M392 232 l10 -4 l8 6 l-10 4Z" fill="#7d9b3b"/>
</g>
<rect width="800" height="600" fill="url(#vg94)"/>
</svg>